<?xml version="1.0" standalone="no"?>
<!DOCTYPE svg PUBLIC "-//W3C//DTD SVG 20010904//EN"
 "http://www.w3.org/TR/2001/REC-SVG-20010904/DTD/svg10.dtd">
<svg version="1.0" xmlns="http://www.w3.org/2000/svg"
 width="340.000000pt" height="480.000000pt" viewBox="0 0 340.000000 480.000000"
 preserveAspectRatio="xMidYMid meet">
<metadata>
Created by potrace 1.16, written by Peter Selinger 2001-2019
</metadata>
<g transform="translate(0.000000,480.000000) scale(0.100000,-0.100000)"
fill="#000000" stroke="none">
<path d="M682 4579 c-164 -20 -308 -92 -432 -218 -126 -127 -185 -239 -222
-421 -29 -139 -22 -358 16 -485 85 -284 297 -495 554 -551 416 -91 777 95 898
464 15 45 25 84 23 86 -5 4 -222 26 -262 26 -19 0 -27 -5 -27 -17 0 -36 -61
-145 -110 -197 -30 -32 -77 -67 -117 -87 -66 -34 -68 -34 -202 -34 -132 0
-138 1 -204 32 -135 64 -230 187 -278 358 -31 112 -32 288 -1 398 42 150 116
259 221 326 230 148 539 72 656 -162 19 -38 35 -78 35 -88 0 -14 7 -19 28 -19
31 0 256 21 259 24 7 7 -34 133 -65 196 -54 111 -186 242 -302 298 -47 23
-110 48 -141 56 -75 19 -237 27 -327 15z"/>
<path d="M1710 3740 l0 -830 135 0 135 0 -2 828 -3 827 -132 3 -133 3 0 -831z"/>
<path d="M3363 4403 c-14 -34 -14 -42 2 -91 9 -30 19 -52 21 -49 3 2 0 16 -6
31 -15 40 -11 56 5 21 13 -29 13 -28 14 38 1 52 -2 66 -11 61 -9 -5 -9 -2 1 9
9 12 10 17 2 17 -7 0 -19 -17 -28 -37z"/>
<path d="M2530 4090 c-142 -30 -273 -138 -310 -257 -32 -103 -34 -99 72 -107
152 -10 168 -9 168 14 0 60 64 123 145 144 182 48 335 -22 335 -153 0 -75 -43
-105 -171 -116 -394 -35 -521 -87 -591 -240 -26 -58 -30 -183 -9 -250 49 -151
175 -232 374 -243 162 -8 275 29 368 119 28 27 52 49 55 49 2 0 4 -9 4 -19 0
-11 5 -42 12 -70 l11 -51 133 0 132 0 -21 53 c-20 49 -21 78 -27 442 -4 220
-11 403 -17 420 -30 90 -99 177 -167 212 -88 46 -138 56 -296 59 -85 2 -175
-1 -200 -6z m400 -818 c-20 -76 -83 -136 -181 -174 -76 -29 -188 -22 -251 15
-96 56 -104 203 -14 258 45 28 87 37 262 59 86 11 164 24 173 29 14 9 16 0 19
-70 2 -43 -2 -96 -8 -117z"/>
</g>
</svg>
