<?xml version="1.0" standalone="no"?>
<!DOCTYPE svg PUBLIC "-//W3C//DTD SVG 20010904//EN"
 "http://www.w3.org/TR/2001/REC-SVG-20010904/DTD/svg10.dtd">
<svg version="1.0" xmlns="http://www.w3.org/2000/svg"
 width="1240.000000pt" height="480.000000pt" viewBox="0 0 1240.000000 480.000000"
 preserveAspectRatio="xMidYMid meet">
<metadata>
Created by potrace 1.16, written by Peter Selinger 2001-2019
</metadata>
<g transform="translate(0.000000,480.000000) scale(0.100000,-0.100000)"
fill="#000000" stroke="none">
<path d="M3761 4789 c-115 -20 -238 -101 -300 -197 -40 -63 -40 -82 0 -82 23
0 41 -10 69 -37 20 -21 39 -44 41 -52 4 -12 13 -12 55 -2 49 12 51 14 78 76
17 38 25 72 21 84 -5 16 5 29 47 62 52 41 180 109 205 109 28 0 11 20 -24 29
-63 16 -135 20 -192 10z"/>
<path d="M5155 4777 c-27 -8 -75 -27 -105 -43 -55 -29 -55 -29 30 -35 129 -9
226 -47 306 -121 51 -47 60 -69 41 -100 -13 -21 -12 -28 10 -75 20 -43 29 -53
49 -53 19 0 28 -8 40 -35 7 -19 14 -45 14 -59 0 -24 0 -24 37 -5 57 29 137 25
207 -9 31 -16 56 -26 56 -22 0 10 -56 170 -75 215 -46 109 -145 225 -236 278
-109 64 -269 91 -374 64z"/>
<path d="M5585 4786 c-5 -2 -23 -7 -39 -11 -29 -6 -29 -6 5 -27 19 -11 51 -34
71 -50 33 -25 40 -28 60 -17 13 7 67 14 120 17 54 3 98 8 98 13 0 18 -165 71
-235 75 -38 2 -74 2 -80 0z"/>
<path d="M6838 4778 c-21 -6 -38 -13 -38 -17 0 -4 19 -13 43 -20 53 -16 140
-64 193 -108 32 -25 40 -38 37 -56 -3 -13 8 -52 25 -89 26 -57 34 -66 62 -71
52 -11 57 -9 79 28 22 37 71 65 116 65 30 0 30 1 9 43 -46 91 -144 171 -258
213 -73 26 -195 32 -268 12z"/>
<path d="M3931 4589 c-2 -47 -29 -121 -66 -176 -20 -30 -35 -56 -33 -57 2 -1
16 -10 31 -20 15 -9 37 -31 47 -49 19 -31 19 -31 42 18 32 69 32 199 1 265
-18 39 -21 42 -22 19z"/>
<path d="M5211 4563 c-44 -51 -125 -207 -136 -260 -7 -33 -7 -33 46 -33 67 0
128 -29 173 -81 34 -40 34 -40 55 28 11 37 29 85 40 107 20 39 20 39 -1 79
-17 35 -19 46 -9 71 9 26 8 33 -12 54 -25 28 -96 82 -108 82 -4 0 -26 -21 -48
-47z"/>
<path d="M6842 4588 c-34 -85 -36 -184 -6 -280 15 -47 15 -47 57 -4 23 24 49
45 57 48 13 4 12 10 -6 34 -36 49 -64 111 -78 172 -13 54 -14 56 -24 30z"/>
<path d="M651 4579 c-195 -35 -378 -151 -488 -311 -67 -97 -88 -140 -117 -242
-76 -262 -48 -543 77 -766 64 -114 198 -243 307 -297 119 -59 184 -74 340 -80
164 -6 269 14 391 78 172 90 321 284 354 461 8 41 15 38 -140 53 -33 3 -79 8
-101 11 -41 6 -42 5 -49 -28 -12 -54 -75 -165 -115 -202 -88 -80 -185 -116
-310 -116 -137 0 -249 46 -342 141 -66 67 -107 148 -138 269 -19 73 -21 103
-17 215 6 139 21 205 72 305 60 119 159 202 287 241 57 18 87 21 163 17 81 -4
104 -10 169 -41 44 -21 94 -55 121 -82 41 -41 103 -149 118 -206 4 -14 11 -20
20 -16 8 3 66 9 130 12 63 4 121 11 128 16 10 6 9 20 -5 70 -62 225 -243 408
-471 479 -80 25 -292 36 -384 19z"/>
<path d="M1710 3738 l0 -833 135 0 135 0 0 833 0 832 -135 0 -135 0 0 -832z"/>
<path d="M9720 3738 l0 -833 131 1 132 0 4 175 c4 174 4 174 78 249 41 41 76
72 78 70 2 -3 50 -75 107 -160 247 -372 212 -340 386 -338 85 1 154 5 154 9 0
4 -104 159 -231 343 -211 308 -229 338 -216 356 7 10 106 118 220 239 114 121
207 223 207 226 0 3 -74 5 -163 5 l-164 0 -164 -177 c-90 -98 -193 -209 -229
-246 l-65 -68 0 488 0 488 -132 3 -133 3 0 -833z"/>
<path d="M3414 4460 c-32 -13 -64 -59 -64 -92 0 -23 45 -191 55 -205 1 -2 24
19 53 47 33 32 63 51 86 56 20 3 36 7 36 9 0 8 -42 124 -52 143 -13 24 -57 52
-80 51 -7 0 -23 -4 -34 -9z m64 -86 c2 -11 -4 -26 -12 -33 -31 -26 -71 14 -45
45 17 21 53 14 57 -12z"/>
<path d="M7315 4461 c-31 -13 -51 -41 -74 -104 -25 -69 -26 -87 -6 -87 30 0
93 -39 124 -77 21 -26 32 -32 35 -22 45 128 56 168 56 196 0 63 -79 118 -135
94z m64 -80 c13 -24 -8 -55 -35 -49 -20 3 -30 29 -20 54 8 20 43 17 55 -5z"/>
<path d="M4227 4392 c-3 -4 -15 -46 -27 -92 -98 -390 -234 -907 -240 -913 -4
-5 -15 24 -25 65 -32 134 -124 480 -128 484 -2 3 -16 -11 -30 -29 -17 -22 -49
-44 -91 -62 -59 -25 -69 -26 -123 -17 -32 5 -60 8 -63 6 -2 -3 66 -213 151
-467 l155 -462 139 0 c138 0 138 0 156 65 22 78 225 830 247 913 8 31 18 57
22 57 9 0 3 23 95 -335 41 -159 99 -382 128 -495 l54 -205 143 0 c144 0 144 0
159 50 8 28 59 182 112 344 l97 294 -78 76 c-60 59 -87 95 -120 160 -30 60
-44 80 -50 70 -7 -13 -63 -235 -111 -439 -12 -52 -24 -88 -27 -80 -3 8 -62
240 -131 515 l-126 500 -142 3 c-78 1 -144 -1 -146 -6z"/>
<path d="M6274 4386 c-7 -17 -107 -412 -196 -771 l-61 -250 -70 280 c-38 154
-71 282 -73 284 -2 2 -21 -12 -42 -31 -59 -53 -118 -72 -201 -65 -70 6 -70 6
-57 -31 12 -35 16 -37 60 -40 52 -3 128 17 194 54 43 23 43 23 36 1 -28 -92
-105 -192 -176 -228 -21 -11 -38 -24 -38 -30 0 -6 29 -100 64 -208 35 -108 81
-253 102 -323 l39 -128 142 0 c142 0 142 0 153 43 6 23 33 123 60 222 27 99
76 288 110 420 34 132 70 267 79 300 18 59 18 59 29 33 6 -15 39 -130 72 -255
50 -188 110 -403 200 -726 11 -38 11 -38 147 -35 135 3 135 3 166 93 16 50 85
250 152 445 67 195 126 365 129 377 7 21 5 21 -26 12 -82 -23 -184 7 -243 72
-20 23 -38 39 -41 36 -2 -2 -39 -126 -82 -276 -89 -316 -65 -333 -183 129 -39
157 -90 357 -113 445 l-41 160 -143 3 c-118 2 -143 0 -148 -12z"/>
<path d="M3747 4288 c-41 -28 -45 -33 -30 -41 30 -16 74 -60 90 -91 16 -30 16
-30 49 7 50 54 44 111 -16 142 -38 20 -37 20 -93 -17z"/>
<path d="M6960 4309 c-73 -29 -81 -85 -21 -143 39 -38 39 -38 55 -8 8 16 34
46 57 65 41 36 41 36 -1 62 -54 34 -60 36 -90 24z"/>
<path d="M3535 4214 c-72 -37 -105 -91 -105 -172 0 -131 147 -206 266 -137 48
28 84 91 84 146 0 40 -29 107 -56 131 -52 45 -136 60 -189 32z m114 -78 c28
-15 51 -53 51 -87 0 -48 -49 -99 -95 -99 -82 0 -125 111 -66 171 33 32 67 37
110 15z"/>
<path d="M3565 4095 c-14 -13 -25 -30 -25 -38 0 -23 40 -67 61 -67 24 0 69 43
69 65 0 9 -11 27 -25 40 -13 14 -31 25 -40 25 -9 0 -27 -11 -40 -25z"/>
<path d="M5042 4209 c-50 -25 -76 -58 -92 -117 -14 -52 -6 -94 25 -143 30 -46
79 -69 147 -69 159 0 233 181 120 294 -57 58 -128 70 -200 35z m129 -69 c24
-13 49 -61 49 -94 0 -33 -44 -83 -80 -91 -63 -14 -129 53 -115 116 14 64 89
99 146 69z"/>
<path d="M5086 4099 c-31 -25 -34 -61 -6 -89 24 -24 48 -25 78 -4 31 22 29 67
-4 93 -15 12 -30 21 -34 21 -4 0 -19 -9 -34 -21z"/>
<path d="M5605 4216 c-43 -19 -92 -78 -105 -128 -21 -76 17 -155 92 -194 45
-23 145 -14 188 16 38 27 70 91 70 140 0 41 -29 108 -56 132 -50 44 -132 59
-189 34z m114 -80 c73 -38 64 -150 -14 -176 -98 -32 -169 87 -96 161 33 32 67
37 110 15z"/>
<path d="M5636 4099 c-33 -26 -33 -59 -2 -88 30 -28 68 -23 92 13 14 22 14 27
0 54 -14 27 -34 42 -55 42 -5 0 -20 -9 -35 -21z"/>
<path d="M7113 4211 c-88 -40 -124 -154 -78 -246 52 -104 200 -125 286 -41 17
17 35 41 40 54 15 39 10 111 -10 150 -49 94 -141 127 -238 83z m144 -85 c38
-33 40 -102 4 -140 -74 -79 -193 -9 -162 94 20 69 104 93 158 46z"/>
<path d="M7150 4100 c-26 -26 -25 -60 0 -88 41 -43 100 -16 100 46 0 55 -61
81 -100 42z"/>
<path d="M2575 4100 c-210 -30 -359 -166 -377 -344 -3 -29 -3 -29 67 -32 39
-2 97 -6 131 -8 60 -5 60 -5 72 38 26 97 101 139 248 138 135 0 202 -44 219
-143 8 -47 -10 -89 -47 -107 -15 -7 -67 -17 -115 -22 -243 -27 -281 -32 -323
-42 -69 -17 -149 -55 -196 -93 -139 -114 -136 -389 6 -509 174 -146 511 -132
658 28 41 45 41 45 53 -13 6 -32 14 -63 18 -68 3 -6 64 -12 139 -15 130 -4
133 -3 127 17 -38 116 -38 120 -45 500 -4 241 -11 393 -18 415 -27 83 -105
171 -189 214 -81 41 -299 65 -428 46z m365 -708 c0 -38 -7 -93 -16 -123 -38
-130 -201 -212 -357 -179 -177 36 -193 256 -22 305 27 8 111 22 186 30 74 9
149 20 165 25 16 4 32 9 37 9 4 1 7 -30 7 -67z"/>
<path d="M8035 4099 c-140 -21 -264 -86 -351 -182 -105 -117 -155 -251 -155
-418 0 -233 91 -415 265 -529 100 -65 198 -92 331 -93 189 -2 321 49 440 168
119 119 176 262 177 445 1 115 -18 195 -72 306 -67 136 -207 250 -355 288 -80
20 -206 27 -280 15z m203 -244 c158 -47 251 -230 222 -436 -13 -92 -37 -146
-91 -204 -64 -69 -107 -88 -215 -93 -83 -4 -97 -2 -153 23 -76 35 -141 104
-172 183 -29 77 -33 242 -6 319 60 173 236 261 415 208z"/>
<path d="M9359 4077 c-89 -37 -139 -83 -188 -172 -8 -16 -10 2 -11 78 l0 98
-127 -3 -128 -3 0 -584 0 -584 132 -1 131 -1 4 340 c5 378 8 399 72 486 24 32
53 56 93 75 52 26 68 29 151 28 l92 -1 0 127 c0 147 5 140 -98 140 -47 0 -84
-8 -123 -23z"/>
<path d="M5247 3867 c-68 -43 -151 -51 -221 -22 -17 8 -17 4 5 -35 41 -74 132
-158 217 -198 75 -36 80 -37 192 -37 110 0 119 2 180 32 60 30 160 116 149
128 -3 3 -27 -2 -53 -11 -59 -20 -181 -15 -244 11 -37 15 -43 21 -38 41 5 19
-2 28 -39 54 -25 17 -45 28 -45 24 0 -4 -12 4 -27 18 -28 25 -28 25 -76 -5z"/>
</g>
</svg>
