<?xml version="1.0" standalone="no"?>
<!DOCTYPE svg PUBLIC "-//W3C//DTD SVG 20010904//EN"
 "http://www.w3.org/TR/2001/REC-SVG-20010904/DTD/svg10.dtd">
<svg version="1.0" xmlns="http://www.w3.org/2000/svg"
 width="150.000000pt" height="150.000000pt" viewBox="0 0 150.000000 150.000000"
 preserveAspectRatio="xMidYMid meet">
<metadata>
Created by potrace 1.16, written by Peter Selinger 2001-2019
</metadata>
<g transform="translate(0.000000,150.000000) scale(0.100000,-0.100000)"
fill="#000000" stroke="none">
<path d="M361 1489 c-115 -20 -238 -101 -300 -197 -40 -63 -40 -82 0 -82 23 0
41 -10 69 -37 20 -21 39 -44 41 -52 4 -12 13 -12 55 -2 49 12 51 14 78 76 17
38 25 72 21 84 -5 16 5 29 47 62 52 41 180 109 205 109 28 0 11 20 -24 29 -63
16 -135 20 -192 10z"/>
<path d="M531 1289 c-2 -47 -29 -121 -66 -176 -20 -30 -35 -56 -33 -57 2 -1
16 -10 31 -20 15 -9 37 -31 47 -49 l19 -31 23 49 c32 69 32 199 1 265 -18 39
-21 42 -22 19z"/>
<path d="M18 1163 c-16 -4 -18 -20 -18 -154 0 -82 1 -149 3 -149 2 0 26 22 54
49 34 33 64 52 87 57 20 3 36 7 36 9 0 8 -42 124 -52 143 -20 39 -65 57 -110
45z m60 -89 c2 -11 -4 -26 -12 -33 -31 -26 -71 14 -45 45 17 21 53 14 57 -12z"/>
<path d="M827 1092 c-3 -4 -15 -46 -27 -92 -98 -390 -234 -907 -240 -913 -4
-5 -15 24 -25 65 -32 134 -124 480 -128 484 -2 3 -16 -11 -30 -29 -17 -22 -49
-44 -91 -62 -59 -25 -69 -26 -123 -17 -32 5 -60 8 -62 6 -3 -3 35 -124 84
-269 l88 -265 260 2 260 3 17 65 c10 36 48 179 86 318 37 138 71 252 75 252 3
0 9 -10 13 -22 17 -60 156 -607 156 -612 0 -3 81 -6 180 -6 l180 0 -1 278 -1
277 -23 -85 c-13 -47 -40 -157 -61 -245 -20 -88 -40 -153 -42 -145 -3 8 -62
240 -131 515 l-126 500 -142 3 c-78 1 -144 -1 -146 -6z"/>
<path d="M347 988 c-41 -28 -45 -33 -30 -41 30 -16 74 -60 90 -91 l16 -30 33
37 c50 54 44 111 -16 142 -38 20 -37 20 -93 -17z"/>
<path d="M135 914 c-72 -37 -105 -91 -105 -172 0 -131 147 -206 266 -137 48
28 84 91 84 146 0 40 -29 107 -56 131 -52 45 -136 60 -189 32z m114 -78 c28
-15 51 -53 51 -87 0 -48 -49 -99 -95 -99 -82 0 -125 111 -66 171 33 32 67 37
110 15z"/>
<path d="M165 795 c-14 -13 -25 -30 -25 -38 0 -23 40 -67 61 -67 24 0 69 43
69 65 0 21 -44 65 -65 65 -9 0 -27 -11 -40 -25z"/>
</g>
</svg>
