<?xml version="1.0" standalone="no"?>
<!DOCTYPE svg PUBLIC "-//W3C//DTD SVG 20010904//EN"
 "http://www.w3.org/TR/2001/REC-SVG-20010904/DTD/svg10.dtd">
<svg version="1.0" xmlns="http://www.w3.org/2000/svg"
 width="520.000000pt" height="480.000000pt" viewBox="0 0 520.000000 480.000000"
 preserveAspectRatio="xMidYMid meet">
<metadata>
Created by potrace 1.16, written by Peter Selinger 2001-2019
</metadata>
<g transform="translate(0.000000,480.000000) scale(0.100000,-0.100000)"
fill="#000000" stroke="none">
<path d="M1 4571 c0 -83 3 -151 6 -151 9 0 32 34 32 45 0 6 -6 1 -14 -9 -8
-11 -15 -15 -15 -9 0 11 19 30 32 33 4 0 27 10 50 20 24 11 51 20 61 20 22 0
21 7 -4 50 -26 43 -62 82 -112 122 l-38 30 2 -151z"/>
<path d="M2520 3740 l0 -830 130 0 130 0 0 168 1 167 79 82 80 82 167 -249
168 -250 158 0 158 0 -104 153 c-58 83 -163 237 -235 342 l-130 190 102 109
c55 60 154 166 218 235 64 68 115 128 112 133 -3 4 -72 8 -153 8 l-148 0 -80
-82 c-44 -46 -146 -155 -227 -243 -81 -88 -151 -161 -157 -163 -5 -2 -9 186
-9 487 l0 491 -130 0 -130 0 0 -830z"/>
<path d="M87 4436 c-12 -13 -30 -48 -41 -77 -10 -30 -21 -60 -23 -66 -3 -7 0
-13 6 -13 7 0 30 -9 53 -20 22 -11 45 -17 50 -14 4 3 7 2 6 -3 -2 -5 8 -23 23
-39 l25 -31 33 94 c37 104 36 130 -6 169 -36 33 -96 33 -126 0z m91 -38 c34
-34 -6 -90 -48 -68 -25 13 -26 55 -2 69 23 14 36 13 50 -1z"/>
<path d="M0 4196 c0 -26 5 -36 20 -41 11 -3 24 -3 30 0 6 4 9 3 8 -2 -1 -4 6
-21 17 -37 37 -56 14 -137 -46 -159 -16 -6 -29 -15 -29 -19 0 -22 72 14 104
53 26 30 28 38 23 92 -3 41 -2 56 6 48 6 -6 13 -41 17 -78 l7 -68 2 58 c1 58
-21 123 -38 112 -9 -5 -37 23 -34 34 1 3 -5 5 -12 5 -8 -1 -13 2 -10 6 4 6
-45 30 -61 30 -2 0 -4 -15 -4 -34z"/>
<path d="M763 4080 c-85 -22 -117 -38 -201 -97 -141 -100 -232 -290 -232 -483
1 -294 162 -521 422 -597 150 -43 351 -25 481 44 75 40 198 165 236 241 128
254 74 596 -123 768 -68 59 -171 112 -253 129 -95 20 -242 18 -330 -5z m290
-226 c56 -19 128 -81 162 -138 38 -65 58 -167 52 -261 -7 -97 -26 -155 -73
-218 -148 -203 -484 -148 -570 93 -40 113 -26 300 30 388 34 53 109 118 159
136 57 20 182 20 240 0z"/>
<path d="M2195 4086 c-99 -31 -192 -108 -218 -179 -11 -29 -12 -23 -17 68 l-5
100 -122 3 -123 3 0 -586 0 -585 129 0 130 0 3 348 c4 391 6 399 79 485 64 75
105 92 221 92 l98 0 0 126 c0 123 -1 127 -22 133 -37 9 -110 6 -153 -8z"/>
</g>
</svg>
