<?xml version="1.0" standalone="no"?>
<!DOCTYPE svg PUBLIC "-//W3C//DTD SVG 20010904//EN"
 "http://www.w3.org/TR/2001/REC-SVG-20010904/DTD/svg10.dtd">
<svg version="1.0" xmlns="http://www.w3.org/2000/svg"
 width="150.000000pt" height="150.000000pt" viewBox="0 0 150.000000 150.000000"
 preserveAspectRatio="xMidYMid meet">
<metadata>
Created by potrace 1.16, written by Peter Selinger 2001-2019
</metadata>
<g transform="translate(0.000000,150.000000) scale(0.100000,-0.100000)"
fill="#000000" stroke="none">
<path d="M1038 1478 c-21 -5 -38 -13 -38 -17 0 -4 19 -13 43 -20 53 -16 140
-64 193 -108 32 -25 40 -38 37 -56 -3 -13 8 -53 25 -89 29 -63 31 -66 73 -73
37 -6 45 -5 54 11 5 10 25 33 43 51 30 30 32 36 32 102 l0 71 -60 44 c-90 67
-157 89 -270 92 -52 2 -112 -2 -132 -8z"/>
<path d="M0 1429 c0 -28 1 -29 50 -29 28 0 50 4 50 9 0 4 -22 18 -50 29 l-50
21 0 -30z"/>
<path d="M1042 1288 c-34 -85 -36 -184 -6 -280 l15 -47 42 43 c23 24 49 45 57
48 13 4 12 10 -6 34 -36 49 -64 111 -78 172 -13 54 -14 56 -24 30z"/>
<path d="M1479 1134 c-17 -19 -59 -125 -59 -147 0 -11 70 -40 78 -33 1 2 1 47
0 101 -3 91 -4 96 -19 79z"/>
<path d="M474 1086 c-7 -17 -107 -412 -196 -771 l-61 -250 -70 280 c-38 154
-71 282 -73 284 -2 3 -20 -11 -39 -29 -27 -26 -35 -42 -35 -68 l0 -34 36 21
35 21 -7 -22 c-3 -13 -20 -49 -35 -80 -29 -57 -29 -58 -29 -248 l0 -190 224 0
224 0 36 143 c76 300 127 491 131 495 8 8 22 -39 85 -275 34 -126 70 -258 81
-295 l20 -68 258 0 258 0 85 248 c47 136 89 257 92 269 7 21 5 21 -26 12 -82
-23 -184 7 -243 72 -20 23 -38 39 -41 36 -2 -2 -39 -126 -82 -276 l-77 -272
-17 58 c-9 32 -49 186 -89 343 -39 157 -90 357 -113 445 l-41 160 -143 3
c-118 2 -143 0 -148 -12z"/>
<path d="M1 985 c-1 -40 3 -53 19 -63 25 -15 25 -5 0 63 l-18 50 -1 -50z"/>
<path d="M1160 1009 c-73 -29 -81 -85 -21 -143 l39 -38 16 30 c8 16 34 46 57
65 l41 36 -42 26 c-54 34 -60 36 -90 24z"/>
<path d="M1313 911 c-88 -40 -124 -154 -78 -246 38 -76 137 -113 219 -83 l41
15 3 152 3 152 -35 14 c-48 20 -102 18 -153 -4z m144 -85 c38 -33 40 -102 4
-140 -74 -79 -193 -9 -162 94 20 69 104 93 158 46z"/>
<path d="M1350 800 c-26 -26 -25 -60 0 -88 41 -43 100 -16 100 46 0 55 -61 81
-100 42z"/>
<path d="M0 750 c0 -66 2 -120 5 -120 13 0 45 87 45 120 0 33 -32 120 -45 120
-3 0 -5 -54 -5 -120z"/>
</g>
</svg>
