<?xml version="1.0" standalone="no"?>
<!DOCTYPE svg PUBLIC "-//W3C//DTD SVG 20010904//EN"
 "http://www.w3.org/TR/2001/REC-SVG-20010904/DTD/svg10.dtd">
<svg version="1.0" xmlns="http://www.w3.org/2000/svg"
 width="1240.000000pt" height="480.000000pt" viewBox="0 0 1240.000000 480.000000"
 preserveAspectRatio="xMidYMid meet">
<metadata>
Created by potrace 1.16, written by Peter Selinger 2001-2019
</metadata>
<g transform="translate(0.000000,480.000000) scale(0.100000,-0.100000)"
fill="#000000" stroke="none">
<path d="M0 2400 l0 -2400 6200 0 6200 0 0 2400 0 2400 -6200 0 -6200 0 0
-2400z m5675 2380 c3 -5 20 -7 37 -3 24 5 29 3 23 -7 -6 -10 -4 -12 10 -6 23
8 57 -2 49 -16 -4 -6 1 -8 16 -3 17 5 21 4 15 -6 -6 -9 -3 -11 8 -6 10 3 17 2
17 -4 0 -6 5 -7 10 -4 6 3 10 2 10 -3 0 -6 -33 -13 -72 -17 -40 -4 -88 -14
-107 -21 -32 -13 -36 -13 -57 7 -13 12 -40 32 -61 45 -21 13 -32 24 -25 24 7
0 11 4 7 9 -5 9 20 14 92 19 12 1 25 -2 28 -8z m-1800 -11 c11 -7 28 -5 66 6
19 5 21 4 9 -5 -12 -9 -10 -10 13 -6 15 4 27 2 27 -4 0 -5 -7 -10 -16 -10 -31
0 -160 -69 -208 -111 -35 -31 -46 -47 -42 -62 3 -11 -8 -48 -23 -81 -26 -59
-30 -62 -74 -72 l-45 -11 -31 43 c-24 35 -40 46 -76 55 -25 6 -45 13 -45 16 0
30 105 167 121 157 5 -3 9 0 9 6 0 13 61 51 72 44 4 -3 8 0 8 6 0 6 5 8 10 5
6 -3 10 -2 10 4 0 6 7 7 17 4 11 -4 14 -3 9 6 -6 9 0 10 21 6 16 -4 23 -3 17
2 -14 9 136 11 151 2z m1482 -2 c-7 -5 0 -6 16 -3 15 4 27 2 27 -3 0 -5 10 -7
22 -3 14 3 19 1 14 -6 -5 -8 -2 -10 8 -6 9 3 16 1 16 -6 0 -6 5 -8 10 -5 6 3
10 1 10 -5 0 -6 4 -9 9 -5 5 3 17 -2 25 -11 9 -8 16 -12 16 -9 0 4 8 -1 18
-12 9 -10 13 -12 7 -4 -5 8 26 -22 71 -67 47 -47 94 -107 113 -142 31 -57 91
-220 91 -246 0 -7 -17 -3 -46 12 -80 41 -130 41 -225 0 -13 -6 -17 1 -22 34
-6 48 -30 80 -55 73 -14 -3 -23 9 -41 51 -21 52 -21 56 -6 80 16 25 16 26 -31
76 -87 93 -199 140 -330 140 -45 0 -73 4 -69 10 3 5 13 6 22 3 10 -4 14 -2 10
4 -8 13 20 26 35 16 7 -3 8 -1 4 5 -4 7 -1 13 6 13 22 3 52 5 78 7 15 2 20 5
13 10 -6 4 35 7 92 7 57 0 98 -4 92 -8z m1706 2 c-12 -4 -7 -8 16 -12 18 -4
37 -4 42 -1 5 3 9 1 9 -5 0 -6 6 -8 14 -5 8 3 24 -4 35 -15 12 -12 21 -18 21
-15 0 3 9 -4 21 -17 11 -13 17 -17 13 -9 -14 26 106 -99 126 -132 27 -44 25
-48 -12 -48 -42 0 -94 -32 -116 -70 -15 -27 -21 -29 -52 -24 -48 9 -47 8 -81
76 -19 38 -28 69 -25 83 4 15 -2 29 -22 47 -45 43 -148 104 -196 118 -63 17
-68 31 -9 24 127 -14 129 -14 106 -4 -13 5 -23 11 -23 13 0 2 34 3 75 3 41 -1
67 -4 58 -7z m-1762 -191 c18 -18 29 -26 25 -18 -5 8 8 -1 29 -21 36 -36 37
-37 21 -62 -16 -23 -16 -27 5 -70 l22 -46 -26 -58 c-14 -32 -31 -78 -37 -102
l-11 -44 -42 41 c-56 53 -96 72 -161 75 -53 2 -55 3 -49 27 19 83 152 310 182
310 5 0 24 -15 42 -32z m-1358 -3 c-3 -8 0 -15 6 -15 7 0 9 -10 5 -27 -4 -22
-3 -25 5 -13 9 12 11 5 7 -28 -3 -28 -1 -40 6 -36 8 5 9 -5 5 -32 -4 -21 -7
-47 -7 -57 0 -11 -5 -15 -11 -11 -7 4 -9 0 -5 -14 6 -19 -11 -72 -23 -72 -3 0
-15 13 -25 29 -11 16 -32 36 -48 46 l-28 16 24 32 c37 49 76 138 76 175 0 19
4 31 10 27 5 -3 7 -12 3 -20z m2933 -68 c9 -26 31 -70 51 -98 19 -28 33 -52
31 -53 -2 -2 -22 -13 -45 -26 -23 -13 -42 -26 -41 -29 2 -18 -3 -31 -13 -31
-5 0 -7 5 -4 10 3 6 2 10 -3 10 -6 0 -8 10 -5 23 4 18 3 19 -6 7 -9 -11 -10
-4 -6 30 4 36 3 40 -5 20 -8 -20 -8 -17 -4 15 3 22 7 75 9 118 4 79 17 124 23
77 2 -14 10 -46 18 -73z m-3392 -59 c-2 -4 5 -9 16 -13 23 -7 44 -41 35 -55
-3 -6 -1 -10 5 -10 7 0 9 -7 6 -16 -4 -10 -2 -13 6 -8 7 5 9 0 6 -14 -4 -12
-2 -22 2 -22 5 0 8 -9 7 -20 -1 -11 -8 -20 -17 -20 -23 0 -107 -55 -120 -79
-6 -12 -14 -21 -18 -21 -10 0 -62 170 -62 203 0 44 45 82 97 82 22 0 39 -3 37
-7z m3921 -8 c-4 8 5 2 19 -13 33 -36 33 -72 2 -157 -14 -36 -27 -73 -30 -84
-6 -16 -12 -13 -55 27 -32 30 -62 48 -86 53 -23 4 -32 9 -25 14 7 5 10 17 7
29 -3 12 -1 19 3 16 11 -7 33 62 24 76 -5 8 -3 9 6 4 10 -6 12 -4 7 8 -8 21 6
29 56 34 22 2 43 5 45 8 3 3 11 -3 19 -13 10 -11 12 -12 8 -2z m-2899 -87 c4
-14 9 -20 13 -15 3 6 6 -11 6 -36 0 -59 35 -178 47 -160 4 7 5 -2 2 -22 -4
-28 -3 -32 6 -20 9 12 10 11 5 -8 -9 -31 4 -89 16 -71 6 9 7 1 3 -21 -5 -28
-3 -32 6 -20 10 12 11 11 6 -10 -7 -31 3 -72 16 -64 7 4 8 -6 3 -27 -5 -27 -4
-31 5 -19 9 12 10 9 5 -13 -4 -20 -2 -27 6 -22 8 5 9 -2 4 -26 -5 -26 -4 -31
5 -19 9 12 10 7 5 -20 -5 -27 -4 -32 5 -20 9 12 11 10 7 -12 -2 -15 -1 -26 2
-23 4 2 24 -67 45 -153 21 -86 42 -164 46 -172 9 -17 12 -9 71 240 60 253 62
260 70 260 5 0 6 7 3 15 -4 8 -4 15 -1 15 3 0 17 -25 31 -56 14 -30 35 -69 48
-86 12 -18 17 -28 10 -24 -6 4 14 -20 46 -52 31 -33 67 -65 80 -71 12 -7 22
-19 22 -28 0 -8 -50 -168 -111 -354 l-112 -339 -138 0 c-122 0 -138 2 -143 18
-3 9 -44 168 -91 352 -141 546 -177 680 -185 680 -4 0 -10 -10 -12 -22 -9 -42
-229 -852 -256 -941 l-26 -88 -134 3 -135 3 -153 460 c-84 253 -154 464 -154
468 0 4 9 3 19 -3 31 -16 106 -12 160 9 28 10 53 16 57 12 4 -3 4 0 0 7 -4 6
-2 13 3 13 6 1 15 2 20 3 5 0 13 5 18 10 5 6 2 6 -7 1 -13 -8 -13 -7 -1 8 20
25 29 21 36 -14 6 -24 9 -28 17 -18 7 10 8 5 3 -14 -4 -21 -3 -27 6 -21 9 5
10 1 7 -14 -4 -12 -2 -22 4 -22 6 0 8 -9 5 -20 -3 -11 -2 -18 2 -16 4 3 29
-83 56 -190 26 -107 52 -191 56 -187 5 6 75 268 105 395 3 16 11 25 17 21 6
-3 7 -1 3 6 -11 17 25 164 36 149 6 -8 7 1 3 22 -4 23 -3 30 3 22 12 -18 23
22 16 58 -5 20 -3 22 6 10 9 -12 10 -7 5 20 -5 27 -4 32 5 20 9 -12 10 -7 5
20 -5 27 -4 32 5 20 9 -12 10 -9 5 13 -3 16 -2 26 3 23 8 -5 17 23 52 161 l10
42 130 0 130 -1 6 -25z m2049 4 c3 -12 7 -33 9 -47 8 -46 18 -63 28 -48 6 9 7
6 3 -10 -9 -31 4 -89 16 -71 6 9 7 1 3 -21 -4 -28 -3 -32 6 -20 9 12 10 11 5
-7 -8 -29 41 -231 53 -219 3 4 30 -87 59 -201 29 -114 61 -237 70 -272 l17
-63 13 43 c7 24 36 128 64 231 29 103 55 185 60 183 4 -3 5 5 1 17 -4 15 -2
19 7 13 10 -6 11 -2 6 15 -5 16 -4 20 4 15 8 -5 10 2 5 22 -7 25 -6 27 9 15 9
-8 14 -19 11 -27 -3 -7 9 -23 27 -36 19 -13 29 -17 25 -8 -4 7 1 3 12 -11 12
-14 24 -21 28 -17 4 4 1 7 -6 7 -7 0 -11 2 -8 5 8 8 39 -6 33 -14 -2 -4 36 -7
85 -7 50 1 90 -2 90 -6 0 -4 -42 -130 -94 -280 -52 -150 -122 -355 -156 -455
l-63 -183 -133 0 c-74 0 -134 2 -134 5 0 3 -30 112 -66 243 -36 130 -99 361
-140 512 -41 151 -79 279 -83 283 -5 5 -18 -27 -29 -70 -11 -43 -44 -168 -72
-278 -28 -110 -81 -311 -118 -448 l-66 -248 -140 3 -139 3 -34 110 c-19 61
-66 208 -104 328 -39 120 -69 220 -67 221 1 1 26 17 54 34 61 39 107 93 140
169 28 63 25 104 -4 66 -23 -29 -112 -62 -188 -70 l-62 -6 -12 37 c-6 21 -10
39 -8 41 2 3 20 0 39 -5 18 -6 46 -10 61 -10 34 0 116 35 148 63 21 19 23 20
10 2 -14 -20 -14 -20 7 -1 13 10 20 22 18 27 -3 4 -1 10 4 13 12 8 17 0 26
-43 5 -23 4 -31 -4 -27 -7 5 -9 1 -5 -8 3 -9 10 -14 14 -11 4 2 33 -102 65
-232 34 -138 61 -230 65 -222 4 8 29 103 55 211 30 123 52 195 58 191 6 -4 8
0 4 10 -7 20 2 79 12 73 3 -3 7 14 7 37 1 23 6 43 12 45 5 1 7 12 4 24 -3 15
-2 19 7 14 9 -6 10 0 6 21 -5 19 -4 24 3 15 13 -18 34 69 26 106 -4 22 -3 24
6 12 9 -12 10 -9 5 13 -3 17 -2 26 3 23 13 -8 37 80 36 132 -1 24 2 38 6 32 5
-8 10 -3 13 12 6 23 8 24 136 26 128 2 131 1 136 -21z m-2691 -78 c35 -41 33
-69 -8 -108 l-34 -33 -28 40 c-15 21 -41 48 -57 59 l-29 21 38 26 c52 35 86
34 118 -5z m3185 4 l41 -26 -34 -24 c-19 -12 -45 -41 -57 -63 l-23 -40 -38 37
c-45 44 -48 70 -10 111 34 39 67 41 121 5z m-3429 -64 c-11 -8 -7 -9 17 -4 28
6 37 2 65 -27 17 -18 27 -26 22 -18 -5 9 1 4 14 -10 23 -25 42 -79 42 -115 -1
-37 -38 -102 -75 -131 -52 -39 -133 -44 -190 -12 -74 43 -104 134 -70 215 21
50 42 72 90 94 44 20 112 27 85 8z m1580 -14 c58 -30 90 -87 90 -161 0 -56
-20 -95 -67 -131 -32 -24 -45 -28 -104 -28 -75 0 -106 16 -146 75 -27 39 -31
125 -9 168 45 86 150 120 236 77z m567 -6 c58 -36 91 -123 72 -191 -19 -74
-96 -128 -179 -128 -40 0 -113 42 -137 79 -27 40 -31 113 -9 164 40 95 163
131 253 76z m1490 16 c50 -21 72 -42 94 -90 57 -124 -22 -248 -157 -247 -106
1 -176 69 -176 172 0 52 13 86 46 113 11 10 15 15 7 11 -9 -4 -12 -3 -7 4 4 6
13 9 21 6 8 -4 17 1 21 9 3 9 12 13 21 10 11 -4 14 -2 9 5 -5 8 3 10 26 7 26
-4 29 -3 13 4 -36 17 41 13 82 -4z m-1904 -365 c5 0 26 -12 47 -27 28 -21 38
-34 37 -53 -3 -39 71 -61 188 -57 50 2 97 6 105 9 8 3 12 3 7 1 -4 -3 -5 -8
-2 -13 9 -15 -94 -98 -143 -115 -108 -37 -261 -26 -365 26 -54 28 -156 127
-187 180 -21 39 -22 42 -4 35 66 -28 168 -11 228 38 l30 23 25 -23 c14 -13 30
-24 34 -24z m-5056 -142 c-2 -18 -4 -6 -4 27 0 33 2 48 4 33 2 -15 2 -42 0
-60z"/>
<path d="M3414 4386 c-12 -31 0 -51 31 -51 27 0 30 3 30 30 0 25 -4 30 -28 33
-17 2 -29 -2 -33 -12z"/>
<path d="M7321 4386 c-9 -11 -10 -20 -1 -35 21 -40 79 -15 65 29 -7 24 -46 27
-64 6z"/>
<path d="M3536 4125 c-21 -19 -26 -33 -26 -70 0 -38 5 -52 29 -76 62 -62 161
-19 161 71 0 87 -101 133 -164 75z m108 -31 c35 -34 6 -94 -44 -94 -33 0 -52
21 -52 55 0 14 5 32 12 40 16 20 64 19 84 -1z"/>
<path d="M5057 4130 c-53 -42 -41 -141 19 -169 101 -46 190 73 118 158 -21 26
-33 31 -69 31 -27 0 -51 -7 -68 -20z m109 -45 c20 -31 15 -53 -18 -78 -25 -19
-28 -19 -52 -4 -33 22 -41 52 -22 82 22 34 70 34 92 0z"/>
<path d="M5611 4129 c-33 -31 -44 -66 -31 -105 37 -111 190 -90 190 26 0 84
-100 133 -159 79z m101 -36 c39 -35 7 -98 -48 -91 -18 2 -34 13 -43 29 -13 24
-13 29 2 53 20 30 61 35 89 9z"/>
<path d="M7125 4127 c-20 -16 -28 -35 -32 -69 -5 -42 -3 -50 25 -78 91 -91
230 40 146 139 -22 26 -33 31 -69 31 -31 0 -52 -7 -70 -23z m109 -33 c22 -21
20 -60 -4 -84 -26 -26 -46 -25 -75 5 -29 28 -31 42 -9 73 18 26 65 30 88 6z"/>
</g>
</svg>
